<?xml version="1.0" encoding="UTF-8" standalone="no"?>
<!-- Created with Inkscape (http://www.inkscape.org/) -->

<svg
   xmlns:dc="http://purl.org/dc/elements/1.1/"
   xmlns:cc="http://creativecommons.org/ns#"
   xmlns:rdf="http://www.w3.org/1999/02/22-rdf-syntax-ns#"
   xmlns:svg="http://www.w3.org/2000/svg"
   xmlns="http://www.w3.org/2000/svg"
   xmlns:sodipodi="http://sodipodi.sourceforge.net/DTD/sodipodi-0.dtd"
   xmlns:inkscape="http://www.inkscape.org/namespaces/inkscape"
   width="64"
   height="64"
   viewBox="0 0 16.933333 16.933334"
   version="1.1"
   id="svg8"
   inkscape:version="0.92.2 (5c3e80d, 2017-08-06)"
   sodipodi:docname="main.svg">
  <defs
     id="defs2" />
  <sodipodi:namedview
     id="base"
     pagecolor="#ffffff"
     bordercolor="#666666"
     borderopacity="1.0"
     inkscape:pageopacity="0.0"
     inkscape:pageshadow="2"
     inkscape:zoom="1.979899"
     inkscape:cx="8.6177082"
     inkscape:cy="-46.647366"
     inkscape:document-units="mm"
     inkscape:current-layer="layer1"
     showgrid="false"
     units="px"
     inkscape:window-width="1862"
     inkscape:window-height="1051"
     inkscape:window-x="58"
     inkscape:window-y="0"
     inkscape:window-maximized="1"
     inkscape:pagecheckerboard="true" />
  <metadata
     id="metadata5">
    <rdf:RDF>
      <cc:Work
         rdf:about="">
        <dc:format>image/svg+xml</dc:format>
        <dc:type
           rdf:resource="http://purl.org/dc/dcmitype/StillImage" />
        <dc:title></dc:title>
      </cc:Work>
    </rdf:RDF>
  </metadata>
  <g
     inkscape:label="Layer 1"
     inkscape:groupmode="layer"
     id="layer1"
     transform="translate(0,-280.06665)">
    <text
       xml:space="preserve"
       style="font-style:normal;font-weight:normal;font-size:6.3499999px;line-height:1.25;font-family:sans-serif;letter-spacing:0px;word-spacing:0px;fill:#803300;fill-opacity:1;stroke:none;stroke-width:0.26458332"
       x="-0.15119052"
       y="286.71902"
       id="text817"><tspan
         sodipodi:role="line"
         id="tspan815"
         x="-0.15119052"
         y="286.71902"
         style="font-style:normal;font-variant:normal;font-weight:bold;font-stretch:normal;font-size:6.3499999px;font-family:sans-serif;-inkscape-font-specification:'sans-serif Bold';fill:#803300;stroke-width:0.26458332">MBC</tspan></text>
    <g
       aria-label="WS"
       style="font-style:normal;font-weight:normal;font-size:10.58333302px;line-height:1.25;font-family:sans-serif;letter-spacing:0px;word-spacing:0px;fill:#000000;fill-opacity:1;stroke:none;stroke-width:0.26458332"
       id="text859"
       transform="translate(-1.2027129,12.962572)">
      <path
         d="m 3.4213965,274.15004 h 1.3490994 l 0.1743219,4.11172 1.7773248,-4.11172 H 8.109138 l 0.1856907,4.11172 1.7166913,-4.11172 h 1.451417 l -2.4367145,5.65788 H 7.3739546 l -0.1894802,-4.3012 -1.8303793,4.3012 H 3.6639312 Z"
         style="font-style:italic;font-variant:normal;font-weight:bold;font-stretch:normal;font-size:7.76111126px;font-family:sans-serif;-inkscape-font-specification:'sans-serif Bold Italic';fill:#008000;stroke-width:0.26458332"
         id="path1670"
         inkscape:connector-curvature="0"
         sodipodi:nodetypes="cccccccccccccc" />
      <path
         d="m 16.1461,277.91587 -0.234956,1.19752 c -0.285483,-0.14148 -0.567177,-0.24633 -0.845082,-0.31454 -0.277904,-0.0707 -0.549492,-0.10611 -0.814765,-0.10611 -0.363802,0 -0.648022,0.0568 -0.852661,0.17053 -0.202113,0.11369 -0.303169,0.2716 -0.303169,0.47371 0,0.12885 0.04421,0.2299 0.132637,0.30316 0.09095,0.0707 0.276641,0.14022 0.557072,0.20843 l 0.598757,0.1478 c 0.500228,0.12632 0.866557,0.30948 1.098986,0.54949 0.234955,0.23748 0.352433,0.5457 0.352433,0.92466 0,0.61392 -0.234955,1.10657 -0.701077,1.47795 -0.466122,0.37138 -1.090143,0.55707 -1.875855,0.55707 -0.366328,0 -0.731393,-0.0341 -1.095195,-0.10232 -0.361276,-0.0682 -0.714973,-0.16927 -1.061091,-0.30317 l 0.231167,-1.23162 c 0.336012,0.19453 0.661918,0.3398 0.977718,0.43581 0.318327,0.096 0.631601,0.144 0.939822,0.144 0.333485,0 0.603811,-0.0682 0.810976,-0.20464 0.209691,-0.13643 0.314537,-0.31075 0.314537,-0.52296 0,-0.13895 -0.04674,-0.24633 -0.140215,-0.32212 -0.09348,-0.0783 -0.298116,-0.1579 -0.613916,-0.23874 l -0.594968,-0.1478 c -0.439595,-0.10863 -0.766764,-0.28043 -0.981508,-0.51539 -0.214745,-0.23495 -0.322117,-0.53938 -0.322117,-0.91329 0,-0.58865 0.22485,-1.05983 0.67455,-1.41352 0.452226,-0.35623 1.059826,-0.53434 1.8228,-0.53434 0.305695,0 0.618969,0.024 0.939822,0.072 0.32338,0.0455 0.651813,0.11494 0.985298,0.20842 z"
         style="font-style:italic;font-variant:normal;font-weight:bold;font-stretch:normal;font-size:7.76111126px;font-family:sans-serif;-inkscape-font-specification:'sans-serif Bold Italic';fill:#008000;stroke-width:0.26458332"
         id="path1672"
         inkscape:connector-curvature="0"
         sodipodi:nodetypes="cccscsccccszsccccscsccccscsccc" />
    </g>
  </g>
</svg>
